# xmcd
#
# Track frame offsets:
#	150
#	38162
#	74550
#	96000
#	118812
#	157425
#	195400
#	218700
#	246825
#	268262
#
# Disc length: 3989 seconds
#
# Revision: 1
# Processed by: cddbd v1.5.1PL0 Copyright (c) Steve Scherf et al.
# Submitted via: CDex 1.50Beta5
#
DISCID=990f930a
DTITLE=Wolfganng Amadeus Mozart - MOZART 40
DYEAR=1900
DGENRE=Classical
TTITLE0=モルトアレフロ
TTITLE1=アンダンテ
TTITLE2=メヌエット、アレグロ
TTITLE3=アレグロアッセイ
TTITLE4=アレグロヴィバーチェ
TTITLE5=アンダンテカンターヴィレ
TTITLE6=メヌエットアレグレット
TTITLE7=モルトアレグロ
TTITLE8=フィガロの結婚
TTITLE9=ドンジョバンニ序曲
EXTD=
EXTT0=
EXTT1=
EXTT2=
EXTT3=
EXTT4=
EXTT5=
EXTT6=
EXTT7=
EXTT8=
EXTT9=
PLAYORDER=
